# xmcd
#
# Track frame offsets:
#  150
#  12677
#  29554
#  44481
#  59333
#  71185
#  89562
#  100289
#  112666
#  127368
#  140420
#  155572
#  171924
#  191726
#  202078
#  218805
#  232007
#
# Disc length: 3285 seconds
#
# Revision: 2
# Processed by: cddbd v1.5.2PL0 Copyright (c) Steve Scherf et al.
# Submitted via: Collectorz.com Music Collector 6.9
#
DISCID=0f0cd311
DTITLE=Various Artist - All Australian Line Dance
DYEAR=1995
DGENRE=Country
TTITLE0=Anne Kirkpatrick - Born for the Nightlife
TTITLE1=Flying Emus - Wheeler Dealer
TTITLE2=Keith Urban - Honky Tonk Rock
TTITLE3=John Williamson - Sail the Nullabor
TTITLE4=Flying Emus - Diamond Creek
TTITLE5=Kieth Urban - Don't Go
TTITLE6=Lee Kernaghan - You Don't Have To Go To Memphis
TTITLE7=Anne Kirkpatrick - Broken Bleedin' Hurtin' Heart
TTITLE8=Slim Dusty and Keith Urban - Lights on the Hill
TTITLE9=John Williamson - I'm in the Mood
TTITLE10=Lee Kernaghan - The Outback Club
TTITLE11=Gina Jeffreys and Tania Kernaghan - Men
TTITLE12=Anne Kirkpatrick - The Dance
TTITLE13=The Dead Ringer Band - Poor Ned
TTITLE14=Lee Kernaghan - She's My Ute
TTITLE15=Pixie Jenkins - Dancin' the Line
TTITLE16=Gina Jeffreys - Girl's Night Out
EXTD=
EXTT0=
EXTT1=
EXTT2=
EXTT3=
EXTT4=
EXTT5=
EXTT6=
EXTT7=
EXTT8=
EXTT9=
EXTT10=
EXTT11=
EXTT12=
EXTT13=
EXTT14=
EXTT15=
EXTT16=
PLAYORDER=
